<?xml version="1.0" standalone="no"?><!DOCTYPE svg PUBLIC "-//W3C//DTD SVG 1.1//EN" "http://www.w3.org/Graphics/SVG/1.1/DTD/svg11.dtd"><svg t="1638003960095" class="icon" viewBox="0 0 1024 1024" version="1.1" xmlns="http://www.w3.org/2000/svg" p-id="2300" xmlns:xlink="http://www.w3.org/1999/xlink" width="200" height="200"><defs><style type="text/css"></style></defs><path d="M758.723 194.016c27.266 0 49.345-21.366 49.345-47.699V50.92c0-26.35-22.08-47.714-49.345-47.714-27.267 0-49.347 21.365-49.347 47.714v95.398c0.002 26.333 22.082 47.699 49.347 47.699z m-493.448 0c27.267 0 49.346-21.366 49.346-47.699V50.92c0-26.35-22.079-47.714-49.346-47.714-27.266 0-49.344 21.365-49.344 47.714v95.398c0.001 26.333 22.08 47.699 49.344 47.699z" fill="#05C697" p-id="2301"></path><path d="M939.642 98.617h-82.23v47.698c0 52.668-44.188 95.4-98.688 95.4s-98.687-42.732-98.687-95.4V98.617H607.4c0-1.117-40.9 0-95.4 0s-95.398 0.496-95.398 0h-52.639v47.698c0 52.668-44.156 95.4-98.688 95.4-54.499 0-98.688-42.732-98.688-95.4V98.617h-82.23c-27.266 0-49.346 21.367-49.346 47.698v826.78c0 26.333 22.08 47.699 49.346 47.699h855.287c27.266 0 49.345-21.366 49.345-47.7V146.316c-0.002-26.331-22.082-47.698-49.347-47.698zM725.817 861.795H298.181c-19.683 0-35.644-15.962-35.644-35.634 0-19.684 15.961-35.646 35.644-35.646h427.635c19.685 0 35.646 15.962 35.646 35.646 0.001 19.672-15.96 35.634-35.645 35.634z m0-184.195H298.181c-19.683 0-35.644-15.962-35.644-35.634 0-19.684 15.961-35.646 35.644-35.646h427.635c19.685 0 35.646 15.962 35.646 35.646 0.001 19.672-15.96 35.634-35.645 35.634z m0-184.196H298.181c-19.683 0-35.644-15.962-35.644-35.634 0-19.683 15.961-35.644 35.644-35.644h427.635c19.685 0 35.646 15.96 35.646 35.644 0.001 19.673-15.96 35.634-35.645 35.634z" fill="#05C697" p-id="2302"></path></svg>