<?xml version="1.0" standalone="no"?><!DOCTYPE svg PUBLIC "-//W3C//DTD SVG 1.1//EN" "http://www.w3.org/Graphics/SVG/1.1/DTD/svg11.dtd"><svg t="1638004374774" class="icon" viewBox="0 0 1024 1024" version="1.1" xmlns="http://www.w3.org/2000/svg" p-id="8540" xmlns:xlink="http://www.w3.org/1999/xlink" width="200" height="200"><defs><style type="text/css"></style></defs><path d="M841.955556 768V182.044444a96.142222 96.142222 0 0 0-96.711112-96.711111H153.6A92.728889 92.728889 0 0 0 56.888889 182.044444v73.955556h153.6v585.955556a93.866667 93.866667 0 0 0 85.333333 96.711111h574.577778a96.142222 96.142222 0 0 0 96.711111-96.711111v-73.955556zM210.488889 199.111111H113.777778v-17.066667a38.684444 38.684444 0 0 1 39.822222-39.822222h22.755556a38.115556 38.115556 0 0 1 34.133333 39.822222z m170.666667 642.844445c0 11.377778-5.688889 28.444444-5.688889 39.822222H307.2a38.684444 38.684444 0 0 1-39.822222-39.822222V136.533333h483.555555a38.684444 38.684444 0 0 1 39.822223 39.822223v585.955555H381.155556z m529.066666 0a38.684444 38.684444 0 0 1-39.822222 39.822222H432.355556a84.195556 84.195556 0 0 0 5.688888-39.822222v-22.755556H910.222222z" p-id="8541" fill="#e6e6e6"></path><path d="M659.911111 318.577778l-28.444444-28.444445-102.4 102.4-102.4-102.4-34.133334 28.444445 108.088889 108.088889H392.533333v45.511111h113.777778v68.266666h-113.777778v45.511112h113.777778v91.022222h45.511111v-91.022222h113.777778v-45.511112h-113.777778V472.177778h113.777778v-45.511111H557.511111l102.4-108.088889z" p-id="8542" fill="#e6e6e6"></path></svg>