<?xml version="1.0" standalone="no"?><!DOCTYPE svg PUBLIC "-//W3C//DTD SVG 1.1//EN" "http://www.w3.org/Graphics/SVG/1.1/DTD/svg11.dtd"><svg t="1638004120034" class="icon" viewBox="0 0 1024 1024" version="1.1" xmlns="http://www.w3.org/2000/svg" p-id="6848" xmlns:xlink="http://www.w3.org/1999/xlink" width="200" height="200"><defs><style type="text/css"></style></defs><path d="M274.1248 56.7552c0-28.0064-2.9696-50.688-35.84-50.688-3.5328 0.1792-6.8096 0.64-10.1376 1.0496a157.312 157.312 0 0 1 45.2352 96.6912h0.7424V56.7552z" fill="" p-id="6849"></path><path d="M718.08 0H184.2688c-23.4496 0-44.6208 4.5056-63.5392 12.3904a157.8752 157.8752 0 0 1 96.4608 145.4592V868.7616a155.1872 155.1872 0 0 0 136.576 154.0096c86.2208-5.3248 156.288-83.5072 167.7312-171.264h354.432V157.8496A157.824 157.824 0 0 0 718.08 0z" fill="#FCC015" p-id="6850"></path><path d="M765.5168 498.944a20.1984 20.1984 0 0 1-20.2752 20.1216l-0.0256 0.0256-116.0448 0.0512v47.9232l116.0448-1.7152a19.8656 19.8656 0 0 1 20.3008 19.9168v25.3184a21.0944 21.0944 0 0 1-20.2752 20.8384l-116.0448 4.096v53.7344c0 5.5808-2.304 11.0592-6.4 15.232a23.9616 23.9616 0 0 1-15.6416 7.0656l-28.1344 1.6128c-12.4928 0.7168-22.7584-8.2944-22.7584-20.1984v-54.912l-131.5584 4.6336c-13.7216 0.4864-24.8832-9.1392-24.8832-21.5808v-28.16c0-12.416 11.1872-22.656 24.8832-22.8608l131.5584-1.9456V519.168l-131.5584 0.0512c-13.7216 0-24.8832-10.0096-24.8832-22.4v-28.2368a20.992 20.992 0 0 1 7.296-15.7696c4.6848-4.1216 10.9824-6.3488 17.5616-6.2208l106.3936 2.1248-88.0128-83.8144a22.272 22.272 0 0 1-7.168-16.0256c0-5.888 2.5856-11.4176 7.168-15.3344l21.504-18.4832a23.8336 23.8336 0 0 1 16.9984-5.4784c6.3488 0.384 12.3904 3.0464 16.8448 7.424l81.1264 79.5648a23.936 23.936 0 0 0 15.872 6.8096 22.0672 22.0672 0 0 0 15.7184-5.6576l74.24-68.1728a20.1472 20.1472 0 0 1 14.9248-5.1968c5.5808 0.3328 10.9056 2.816 14.7968 6.8864l18.3296 19.1744c7.9872 8.3456 7.9872 21.1712 0 28.7488l-76.0832 72.0896 87.9616 1.7664a20.8128 20.8128 0 0 1 14.3872 6.2208 20.4544 20.4544 0 0 1 5.888 14.3872v25.3184z" fill="#FFFFFF" p-id="6851"></path><path d="M216.064 143.2064h0.384c-0.1024-1.2032-0.512-2.304-0.64-3.4816a153.9072 153.9072 0 0 0-3.4304-18.9184c-0.5376-2.2528-0.9216-4.5312-1.5616-6.7584a158.2592 158.2592 0 0 0-8.448-22.7584c-0.1792-0.384-0.2816-0.7936-0.4608-1.1776a159.1808 159.1808 0 0 0-12.8768-22.0672c-1.2288-1.7408-2.6624-3.3024-3.9424-5.0176a158.4128 158.4128 0 0 0-11.9552-14.2336c-0.6912-0.7168-1.2288-1.5872-1.92-2.2784l-0.384 0.0768A157.5936 157.5936 0 0 0 120.7296 12.3904C56.3712 39.168 19.3024 106.9824 19.3024 186.6752h197.888V157.8496c0-4.9664-0.6656-9.7792-1.1264-14.6432z" fill="#D39C11" p-id="6852"></path><path d="M875.9296 851.5072H521.4976c-11.4176 87.7312-81.5104 165.9392-167.7312 171.264 6.1184 0.7424 12.288 1.2288 18.6112 1.2288h351.1808c4.9664 0 9.8816-0.256 14.7456-0.7168h89.3952c90.4704 0 165.1712-80.896 176.9984-171.776h-128.768z" fill="#FFD469" p-id="6853"></path></svg>